<svg width="160" height="34" viewBox="0 0 160 34" fill="none" xmlns="http://www.w3.org/2000/svg">
<path d="M41.944 28V7.885H45.616V24.76H54.229V28H41.944ZM63.4892 28.324C62.0492 28.324 60.7352 27.991 59.5472 27.325C58.3772 26.659 57.4412 25.75 56.7392 24.598C56.0552 23.446 55.7132 22.132 55.7132 20.656C55.7132 19.18 56.0552 17.866 56.7392 16.714C57.4412 15.562 58.3772 14.653 59.5472 13.987C60.7172 13.321 62.0312 12.988 63.4892 12.988C64.9292 12.988 66.2342 13.321 67.4042 13.987C68.5742 14.653 69.5012 15.562 70.1852 16.714C70.8872 17.848 71.2382 19.162 71.2382 20.656C71.2382 22.132 70.8872 23.446 70.1852 24.598C69.4832 25.75 68.5472 26.659 67.3772 27.325C66.2072 27.991 64.9112 28.324 63.4892 28.324ZM63.4892 25.084C64.2812 25.084 64.9742 24.895 65.5682 24.517C66.1802 24.139 66.6572 23.617 66.9992 22.951C67.3592 22.267 67.5392 21.502 67.5392 20.656C67.5392 19.792 67.3592 19.036 66.9992 18.388C66.6572 17.722 66.1802 17.2 65.5682 16.822C64.9742 16.426 64.2812 16.228 63.4892 16.228C62.6792 16.228 61.9682 16.426 61.3562 16.822C60.7442 17.2 60.2582 17.722 59.8982 18.388C59.5562 19.036 59.3852 19.792 59.3852 20.656C59.3852 21.502 59.5562 22.267 59.8982 22.951C60.2582 23.617 60.7442 24.139 61.3562 24.517C61.9682 24.895 62.6792 25.084 63.4892 25.084ZM81.0484 33.94C79.9504 33.94 78.9334 33.76 77.9974 33.4C77.0614 33.04 76.2514 32.536 75.5674 31.888C74.9014 31.258 74.4154 30.511 74.1094 29.647L77.4034 28.405C77.6194 29.089 78.0424 29.638 78.6724 30.052C79.3204 30.484 80.1124 30.7 81.0484 30.7C81.7684 30.7 82.3984 30.565 82.9384 30.295C83.4964 30.025 83.9284 29.629 84.2344 29.107C84.5404 28.603 84.6934 27.991 84.6934 27.271V23.923L85.3684 24.733C84.8644 25.615 84.1894 26.281 83.3434 26.731C82.4974 27.181 81.5344 27.406 80.4544 27.406C79.0864 27.406 77.8624 27.091 76.7824 26.461C75.7024 25.831 74.8564 24.967 74.2444 23.869C73.6324 22.771 73.3264 21.538 73.3264 20.17C73.3264 18.784 73.6324 17.551 74.2444 16.471C74.8564 15.391 75.6934 14.545 76.7554 13.933C77.8174 13.303 79.0234 12.988 80.3734 12.988C81.4714 12.988 82.4344 13.222 83.2624 13.69C84.1084 14.14 84.8104 14.797 85.3684 15.661L84.8824 16.552V13.312H88.2304V27.271C88.2304 28.549 87.9154 29.692 87.2854 30.7C86.6734 31.708 85.8274 32.5 84.7474 33.076C83.6854 33.652 82.4524 33.94 81.0484 33.94ZM80.8864 24.139C81.6424 24.139 82.2994 23.977 82.8574 23.653C83.4334 23.311 83.8834 22.843 84.2074 22.249C84.5314 21.655 84.6934 20.971 84.6934 20.197C84.6934 19.441 84.5224 18.766 84.1804 18.172C83.8564 17.56 83.4064 17.083 82.8304 16.741C82.2724 16.399 81.6244 16.228 80.8864 16.228C80.1484 16.228 79.4824 16.399 78.8884 16.741C78.2944 17.083 77.8264 17.56 77.4844 18.172C77.1604 18.766 76.9984 19.441 76.9984 20.197C76.9984 20.953 77.1604 21.628 77.4844 22.222C77.8264 22.816 78.2854 23.284 78.8614 23.626C79.4554 23.968 80.1304 24.139 80.8864 24.139ZM91.5337 28V13.312H95.0707V28H91.5337ZM91.5337 11.665V7.885H95.0707V11.665H91.5337ZM103.925 28.324C102.359 28.324 100.991 27.955 99.8215 27.217C98.6695 26.461 97.8775 25.444 97.4455 24.166L100.091 22.897C100.469 23.725 100.991 24.373 101.657 24.841C102.341 25.309 103.097 25.543 103.925 25.543C104.573 25.543 105.086 25.399 105.464 25.111C105.842 24.823 106.031 24.445 106.031 23.977C106.031 23.689 105.95 23.455 105.788 23.275C105.644 23.077 105.437 22.915 105.167 22.789C104.915 22.645 104.636 22.528 104.33 22.438L101.927 21.763C100.685 21.403 99.7405 20.854 99.0925 20.116C98.4625 19.378 98.1475 18.505 98.1475 17.497C98.1475 16.597 98.3725 15.814 98.8225 15.148C99.2905 14.464 99.9295 13.933 100.739 13.555C101.567 13.177 102.512 12.988 103.574 12.988C104.96 12.988 106.184 13.321 107.246 13.987C108.308 14.653 109.064 15.589 109.514 16.795L106.814 18.064C106.562 17.398 106.139 16.867 105.545 16.471C104.951 16.075 104.285 15.877 103.547 15.877C102.953 15.877 102.485 16.012 102.143 16.282C101.801 16.552 101.63 16.903 101.63 17.335C101.63 17.605 101.702 17.839 101.846 18.037C101.99 18.235 102.188 18.397 102.44 18.523C102.71 18.649 103.016 18.766 103.358 18.874L105.707 19.576C106.913 19.936 107.84 20.476 108.488 21.196C109.154 21.916 109.487 22.798 109.487 23.842C109.487 24.724 109.253 25.507 108.785 26.191C108.317 26.857 107.669 27.379 106.841 27.757C106.013 28.135 105.041 28.324 103.925 28.324ZM118.902 28.162C117.246 28.162 115.959 27.712 115.041 26.812C114.141 25.894 113.691 24.607 113.691 22.951V16.471H111.153V13.312H111.423C112.143 13.312 112.701 13.123 113.097 12.745C113.493 12.367 113.691 11.818 113.691 11.098V9.964H117.228V13.312H120.603V16.471H117.228V22.762C117.228 23.248 117.309 23.662 117.471 24.004C117.651 24.346 117.921 24.607 118.281 24.787C118.659 24.967 119.136 25.057 119.712 25.057C119.838 25.057 119.982 25.048 120.144 25.03C120.324 25.012 120.495 24.994 120.657 24.976V28C120.405 28.036 120.117 28.072 119.793 28.108C119.469 28.144 119.172 28.162 118.902 28.162ZM123.359 28V13.312H126.896V28H123.359ZM123.359 11.665V7.885H126.896V11.665H123.359ZM130.162 28V7.561H133.699V20.953L132.349 20.548L139.261 13.312H143.662L138.235 19.225L143.77 28H139.72L134.914 20.386L137.02 19.954L132.592 24.706L133.699 22.546V28H130.162ZM150.2 28.324C149.174 28.324 148.283 28.153 147.527 27.811C146.771 27.469 146.186 26.983 145.772 26.353C145.358 25.705 145.151 24.958 145.151 24.112C145.151 23.302 145.331 22.582 145.691 21.952C146.051 21.304 146.609 20.764 147.365 20.332C148.121 19.9 149.075 19.594 150.227 19.414L155.033 18.631V21.331L150.902 22.033C150.2 22.159 149.678 22.384 149.336 22.708C148.994 23.032 148.823 23.455 148.823 23.977C148.823 24.481 149.012 24.886 149.39 25.192C149.786 25.48 150.272 25.624 150.848 25.624C151.586 25.624 152.234 25.471 152.792 25.165C153.368 24.841 153.809 24.4 154.115 23.842C154.439 23.284 154.601 22.672 154.601 22.006V18.226C154.601 17.596 154.349 17.074 153.845 16.66C153.359 16.228 152.711 16.012 151.901 16.012C151.145 16.012 150.47 16.219 149.876 16.633C149.3 17.029 148.877 17.56 148.607 18.226L145.718 16.822C146.006 16.048 146.456 15.382 147.068 14.824C147.698 14.248 148.436 13.798 149.282 13.474C150.128 13.15 151.046 12.988 152.036 12.988C153.242 12.988 154.304 13.213 155.222 13.663C156.14 14.095 156.851 14.707 157.355 15.499C157.877 16.273 158.138 17.182 158.138 18.226V28H154.79V25.489L155.546 25.435C155.168 26.065 154.718 26.596 154.196 27.028C153.674 27.442 153.08 27.766 152.414 28C151.748 28.216 151.01 28.324 150.2 28.324Z" fill="white"/>
<path d="M8.12532 26.3158L22.9706 11.4706L20.5294 9.02936L5.68412 23.8746L8.12532 26.3158Z" fill="#04cfe6ad"/>
<path d="M13.9944 11.4706L8.12532 17.3396L5.68412 14.8984L11.5532 9.02936L13.9944 11.4706Z" fill="#04cfe6ad"/>
<path d="M17.1015 26.3158L22.9706 20.4468L20.5294 18.0056L14.6603 23.8746L17.1015 26.3158Z" fill="#04cfe6ad"/>
<path fill-rule="evenodd" clip-rule="evenodd" d="M0 32V3H29V32H0ZM3.45238 6.45238H25.5476V28.5476H3.45238V6.45238Z" fill="#04cfe6ad"/>
</svg>
